# xmcd CD database file
#
# Track frame offsets:
#	150
#	10887
#	25732
#	39214
#	52890
#	65920
#	76765
#	88280
#	99715
#	113795
#	129755
#	145862
#
# Disc length: 2174 seconds
#
# Revision: 0
# Processed by: cddbd v1.5.1PL0 Copyright (c) Steve Scherf et al.
# Submitted via: CDex 1.40Release
#
DISCID=92087c0c
DTITLE=Delbert McClinton - The Millenium Collection
DYEAR=2003
DGENRE=Country
TTITLE0=Victim of Life's Circumstances
TTITLE1=Honky Tonkin' (I Guess I Done Me Some)
TTITLE2=Two More Bottles Of Wine
TTITLE3=Solid Gold Plated Fool
TTITLE4=Pledging My Love
TTITLE5=Lipstick, Powder And Paint
TTITLE6=It's Love Baby (24 Hours A Day)
TTITLE7=Special Love Song
TTITLE8=Before You Accuse Me (Take A Look At Yourself)
TTITLE9=Love Rustler
TTITLE10=Under Suspicion
TTITLE11=B-Movie Boxcar Blues
EXTD=YEAR: 2003 ID3G: 2
EXTT0=
EXTT1=
EXTT2=
EXTT3=
EXTT4=
EXTT5=
EXTT6=
EXTT7=
EXTT8=
EXTT9=
EXTT10=
EXTT11=
PLAYORDER=
